<svg width="92" height="50" viewBox="0 0 92 50" fill="none" xmlns="http://www.w3.org/2000/svg">
<mask id="mask0_125_728" style="mask-type:luminance" maskUnits="userSpaceOnUse" x="31" y="12" width="61" height="38">
<path d="M31.1992 12.083H91.9592V49.2413H31.1992V12.083Z" fill="white"/>
</mask>
<g mask="url(#mask0_125_728)">
<path d="M80.295 49.242H77.4651C76.9215 49.242 76.4813 48.8018 76.4813 48.2582C76.4813 47.7146 76.9215 47.2747 77.4651 47.2747H80.295C85.6263 47.2747 89.9639 42.9381 89.9639 37.6081V18.0148C89.9639 15.8398 88.1918 14.0709 86.0149 14.0709H32.1912C31.6473 14.0709 31.207 13.6306 31.207 13.087C31.207 12.5437 31.6473 12.1035 32.1912 12.1035H86.0149C89.2774 12.1035 91.9325 14.7551 91.9325 18.0154V37.6081C91.9325 44.0227 86.711 49.242 80.295 49.242Z" fill="#CBB492"/>
</g>
<mask id="mask1_125_728" style="mask-type:luminance" maskUnits="userSpaceOnUse" x="0" y="12" width="17" height="38">
<path d="M0 12.083H16.2516V49.2413H0V12.083Z" fill="white"/>
</mask>
<g mask="url(#mask1_125_728)">
<path d="M15.2622 49.242H11.6433C5.2271 49.242 0.00585938 44.0227 0.00585938 37.6071V18.0148C0.00585938 14.7551 2.66002 12.1025 5.92254 12.1025H14.8676C15.4112 12.1025 15.8514 12.5428 15.8514 13.0864C15.8514 13.63 15.4112 14.0699 14.8676 14.0699H5.9235C3.74625 14.0699 1.97543 15.8388 1.97543 18.0138V37.6061C1.97543 42.9365 6.31269 47.2728 11.6443 47.2728H15.2622C15.8058 47.2728 16.246 47.713 16.246 48.2566C16.246 48.8018 15.8058 49.242 15.2622 49.242Z" fill="#CBB492"/>
</g>
<path d="M81.4012 40.3863H10.5385C9.99492 40.3863 9.55469 39.9464 9.55469 39.4028C9.55469 38.8592 9.99492 38.4189 10.5385 38.4189H81.4012C81.9448 38.4189 82.385 38.8592 82.385 39.4028C82.385 39.9464 81.9441 40.3863 81.4012 40.3863Z" fill="#CBB492"/>
<path d="M81.3995 20.7066H73.9194C73.3758 20.7066 72.9355 20.2667 72.9355 19.7231C72.9355 19.1795 73.3758 18.7393 73.9194 18.7393H81.3995C81.9431 18.7393 82.3833 19.1795 82.3833 19.7231C82.3833 20.2667 81.9425 20.7066 81.3995 20.7066Z" fill="#CBB492"/>
<path d="M73.9296 43.5891H17.0339C14.9759 43.5891 13.3027 41.9153 13.3027 39.8586V39.4028C13.3027 38.8592 13.743 38.4189 14.2866 38.4189C14.8302 38.4189 15.2704 38.8592 15.2704 39.4028V39.8586C15.2704 40.8307 16.0609 41.6218 17.0339 41.6218H73.9296C74.9017 41.6218 75.6931 40.8316 75.6931 39.8586V39.4028C75.6931 38.8592 76.1334 38.4189 76.677 38.4189C77.2206 38.4189 77.6608 38.8592 77.6608 39.4028V39.8586C77.6608 41.9159 75.9873 43.5891 73.9296 43.5891Z" fill="#CBB492"/>
<path d="M71.5588 49.0455H20.3806C19.837 49.0455 19.3965 48.6052 19.3965 48.0616C19.3965 47.5184 19.837 47.0781 20.3806 47.0781H71.5588C72.1024 47.0781 72.5426 47.5184 72.5426 48.0616C72.5426 48.6052 72.1024 49.0455 71.5588 49.0455Z" fill="#CBB492"/>
<mask id="mask2_125_728" style="mask-type:luminance" maskUnits="userSpaceOnUse" x="18" y="0" width="11" height="22">
<path d="M18.2109 0.241211H28.5009V21.4745H18.2109V0.241211Z" fill="white"/>
</mask>
<g mask="url(#mask2_125_728)">
<path d="M19.1987 21.3992C18.6551 21.3992 18.2148 20.959 18.2148 20.4154V5.35716C18.2148 2.53519 20.5111 0.240234 23.3327 0.240234C24.6968 0.240234 25.9818 0.772981 26.9497 1.74086C27.9179 2.70873 28.4506 3.99339 28.4506 5.35716V20.1321C28.4506 20.6757 28.0104 21.1156 27.4668 21.1156C26.9232 21.1156 26.4829 20.6757 26.4829 20.1321V5.35716C26.4829 4.51848 26.1544 3.72829 25.5591 3.13206C24.9629 2.53615 24.1724 2.20853 23.3334 2.20853C21.5967 2.20853 20.1841 3.62078 20.1841 5.35716V20.4163C20.1825 20.959 19.7423 21.3992 19.1987 21.3992Z" fill="#CBB492"/>
</g>
<path d="M23.5296 34.09C19.0794 34.09 15.459 30.4702 15.459 26.0213C15.459 23.5046 16.603 21.1781 18.5977 19.6382C19.0278 19.3065 19.6466 19.3859 19.9784 19.8159C20.3102 20.2459 20.2311 20.8639 19.8007 21.1963C18.2924 22.361 17.4276 24.12 17.4276 26.0223C17.4276 29.3859 20.165 32.1233 23.5296 32.1233C26.8939 32.1233 29.6313 29.3865 29.6313 26.0223C29.6313 23.9822 28.6175 22.0866 26.9197 20.9522C26.4677 20.6504 26.3462 20.0392 26.6479 19.5875C26.9507 19.1358 27.5619 19.0149 28.013 19.3157C30.2591 20.8163 31.5999 23.3228 31.5999 26.0223C31.5999 30.4702 27.9795 34.09 23.5296 34.09Z" fill="#CBB492"/>
<path d="M23.3315 23.4621C22.7879 23.4621 22.3477 23.0219 22.3477 22.4783V10.2768C22.3477 9.7332 22.7879 9.29297 23.3315 9.29297C23.8751 9.29297 24.3153 9.7332 24.3153 10.2768V22.4783C24.3153 23.0219 23.8751 23.4621 23.3315 23.4621Z" fill="#CBB492"/>
<path d="M26.285 25.6261C26.285 25.7163 26.2805 25.8063 26.2716 25.8963C26.263 25.9859 26.2496 26.0752 26.232 26.1636C26.2145 26.252 26.1925 26.3394 26.1663 26.4258C26.1401 26.5123 26.1098 26.5971 26.0754 26.6804C26.0406 26.7637 26.002 26.8453 25.9596 26.9248C25.9172 27.0045 25.8706 27.0817 25.8205 27.1567C25.7704 27.2316 25.7168 27.3041 25.6594 27.3739C25.6023 27.4438 25.5417 27.5105 25.4779 27.5743C25.4141 27.6381 25.3474 27.6987 25.2775 27.7558C25.2077 27.8132 25.1353 27.8668 25.0603 27.9169C24.9853 27.967 24.9078 28.0132 24.8284 28.056C24.7486 28.0984 24.6673 28.137 24.5837 28.1714C24.5004 28.2059 24.4156 28.2365 24.3291 28.2627C24.243 28.2888 24.1553 28.3105 24.0669 28.3284C23.9782 28.3459 23.8892 28.359 23.7992 28.368C23.7096 28.3769 23.6196 28.3814 23.5294 28.3814C23.4391 28.3814 23.3491 28.3769 23.2592 28.368C23.1692 28.359 23.0802 28.3459 22.9915 28.3284C22.9031 28.3105 22.8157 28.2888 22.7293 28.2627C22.6428 28.2365 22.558 28.2059 22.4747 28.1714C22.3915 28.137 22.3098 28.0984 22.2304 28.056C22.1506 28.0132 22.0734 27.967 21.9981 27.9169C21.9231 27.8668 21.8507 27.8132 21.7812 27.7558C21.7113 27.6987 21.6447 27.6381 21.5805 27.5743C21.5167 27.5105 21.4564 27.4438 21.399 27.3739C21.3419 27.3041 21.288 27.2316 21.2379 27.1567C21.1878 27.0817 21.1416 27.0045 21.0988 26.9248C21.0564 26.8453 21.0178 26.7637 20.9833 26.6804C20.9489 26.5971 20.9183 26.5123 20.8921 26.4258C20.866 26.3394 20.8443 26.252 20.8264 26.1636C20.8088 26.0752 20.7958 25.9859 20.7868 25.8963C20.7779 25.8063 20.7734 25.7163 20.7734 25.6261C20.7734 25.5358 20.7779 25.4458 20.7868 25.3562C20.7958 25.2662 20.8088 25.1772 20.8264 25.0885C20.8443 25.0002 20.866 24.9128 20.8921 24.8263C20.9183 24.7399 20.9489 24.655 20.9833 24.5717C21.0178 24.4885 21.0564 24.4068 21.0988 24.3274C21.1416 24.2479 21.1878 24.1704 21.2379 24.0955C21.288 24.0205 21.3419 23.9481 21.399 23.8782C21.4564 23.8087 21.5167 23.7417 21.5805 23.6779C21.6447 23.6141 21.7113 23.5538 21.7812 23.4964C21.8507 23.4393 21.9231 23.3853 21.9981 23.3353C22.0734 23.2852 22.1506 23.2389 22.2304 23.1965C22.3098 23.1537 22.3915 23.1151 22.4747 23.0807C22.558 23.0462 22.6428 23.0159 22.7293 22.9898C22.8157 22.9636 22.9031 22.9416 22.9915 22.924C23.0802 22.9065 23.1692 22.8931 23.2592 22.8842C23.3491 22.8756 23.4391 22.8711 23.5294 22.8711C23.6196 22.8711 23.7096 22.8756 23.7992 22.8842C23.8892 22.8931 23.9782 22.9065 24.0669 22.924C24.1553 22.9416 24.243 22.9636 24.3291 22.9898C24.4156 23.0159 24.5004 23.0462 24.5837 23.0807C24.6673 23.1151 24.7486 23.1537 24.8284 23.1965C24.9078 23.2389 24.9853 23.2852 25.0603 23.3353C25.1353 23.3853 25.2077 23.4393 25.2775 23.4964C25.3474 23.5538 25.4141 23.6141 25.4779 23.6779C25.5417 23.7417 25.6023 23.8087 25.6594 23.8782C25.7168 23.9481 25.7704 24.0205 25.8205 24.0955C25.8706 24.1704 25.9172 24.2479 25.9596 24.3274C26.002 24.4068 26.0406 24.4885 26.0754 24.5717C26.1098 24.655 26.1401 24.7399 26.1663 24.8263C26.1925 24.9128 26.2145 25.0002 26.232 25.0885C26.2496 25.1772 26.263 25.2662 26.2716 25.3562C26.2805 25.4458 26.285 25.5358 26.285 25.6261Z" fill="#CBB492"/>
<path d="M23.5288 29.3663C21.4667 29.3663 19.7891 27.6889 19.7891 25.6275C19.7891 23.5657 21.4667 21.8887 23.5288 21.8887C25.5906 21.8887 27.2683 23.5657 27.2683 25.6275C27.2683 27.688 25.5906 29.3663 23.5288 29.3663ZM23.5288 23.856C22.5514 23.856 21.757 24.6503 21.757 25.6275C21.757 26.6043 22.5514 27.3989 23.5288 27.3989C24.5059 27.3989 25.3006 26.6043 25.3006 25.6275C25.3006 24.6503 24.505 23.856 23.5288 23.856Z" fill="#CBB492"/>
</svg>
