<svg width="68" height="69" viewBox="0 0 68 69" fill="none" xmlns="http://www.w3.org/2000/svg">
<mask id="mask0_125_696" style="mask-type:luminance" maskUnits="userSpaceOnUse" x="0" y="0" width="68" height="69">
<path d="M0 0H68V68.0146H0V0Z" fill="white"/>
</mask>
<g mask="url(#mask0_125_696)">
<path d="M22.3618 36.2513H34.9728L35.2625 36.2752C35.4978 36.3599 35.5702 36.3599 35.7754 36.5167C36.083 36.7217 36.3063 37.0657 36.3485 37.4578C36.3606 37.5423 36.3606 37.6388 36.3606 37.7354L35.4736 51.2183L44.9348 31.5336H32.2697C32.0161 31.5096 31.9499 31.5217 31.7265 31.4131C31.3645 31.2684 31.0869 30.9666 30.9664 30.6046C30.8817 30.3695 30.8938 30.3031 30.8938 30.0497L31.7689 17.4716L22.3618 36.2513ZM47.1374 28.7588L47.4149 28.7889C47.6503 28.8553 47.7226 28.8553 47.9337 28.9939C48.3078 29.2714 48.5372 29.73 48.5251 30.2004C48.513 30.454 48.4708 30.5081 48.3864 30.7434L34.8763 58.8856C34.816 58.9701 34.7797 59.0545 34.7195 59.139C34.2911 59.6758 33.4463 59.8146 32.8609 59.4407C32.5472 59.2355 32.3119 58.8735 32.2514 58.4814C32.2396 58.3848 32.2396 58.2885 32.2396 58.192L33.5006 39.0263H20.1113L19.8217 38.996C19.5863 38.9298 19.5199 38.9298 19.3088 38.773C18.9347 38.5135 18.6994 38.0369 18.7295 37.5664C18.7416 37.3069 18.7838 37.2467 18.8683 37.0294L32.3783 10.0334C32.4868 9.87046 32.6016 9.70156 32.7524 9.58104C32.9031 9.45436 33.0722 9.36991 33.2653 9.31559C33.4584 9.26127 33.6515 9.27336 33.8505 9.28546C34.098 9.35782 34.1644 9.35782 34.3876 9.49659C34.7074 9.71982 34.9427 10.0636 34.997 10.4498C35.0151 10.5463 34.997 10.6488 35.0151 10.7453L33.7661 28.7588H47.1374ZM33.935 2.79428C27.8528 2.81231 21.8067 4.62826 16.7684 7.97029C11.0964 11.7286 6.69779 17.3751 4.46528 23.824C1.82832 31.4491 2.317 40.1363 5.81081 47.4478C9.55775 55.266 16.6718 61.3952 24.9806 63.8927C31.7929 65.9438 39.2872 65.6 45.9064 62.8551C52.9358 59.9413 58.8189 54.3793 62.1256 47.5261C65.6313 40.2447 66.1441 31.564 63.5195 23.9085C61.3352 17.4837 56.9484 11.8131 51.2767 8.02461C46.2201 4.65839 40.1922 2.83651 34.1402 2.79428H33.9291H33.935ZM34.0436 0.0253906C40.6871 0.0372595 47.2762 2.03421 52.7731 5.69601C58.9338 9.78601 63.7185 15.9334 66.132 22.9612C68.3648 29.4524 68.5579 36.6251 66.7175 43.2008C64.5391 50.9528 59.501 57.8601 52.7731 62.3242C44.5004 67.82 33.8083 69.4547 24.178 66.5591C17.1726 64.4478 10.8793 59.9716 6.53482 54.0474C2.3291 48.3044 4.60582e-05 41.2162 4.60582e-05 34.0615C-0.0120511 26.8223 2.35923 19.6071 6.6615 13.7977C11.7362 6.94477 19.4476 2.10063 27.8709 0.580264C29.856 0.218261 31.8655 0.0372595 33.8807 0.0253906H34.0436Z" fill="#CBB492"/>
</g>
</svg>
