<svg width="68" height="68" viewBox="0 0 68 68" fill="none" xmlns="http://www.w3.org/2000/svg">
<path d="M42.6171 67.9971C42.2817 67.9971 41.9797 67.7949 41.8501 67.4852C41.7219 67.1757 41.7931 66.8194 42.0303 66.5822L66.5818 42.0318C66.907 41.7248 67.4189 41.7326 67.735 42.05C68.0512 42.3662 68.0603 42.8767 67.7532 43.2031L43.2029 67.7534C43.0474 67.9091 42.8375 67.9971 42.6171 67.9971Z" fill="#CBB492"/>
<path d="M25.3803 64.3399C25.1613 64.3399 24.95 64.2533 24.7946 64.099L14.3464 53.6508C14.0225 53.3269 14.0225 52.8021 14.3464 52.4782L66.5824 0.243349C66.9077 -0.0714622 67.4247 -0.0676933 67.7448 0.252438C68.0647 0.572348 68.0687 1.08935 67.7539 1.41458L16.1072 53.0626L25.3803 62.3382L43.8617 43.8582L66.5824 21.1373C66.9103 20.8471 67.4065 20.8612 67.7175 21.171C68.0272 21.4793 68.0441 21.9768 67.7539 22.306L25.9658 64.099C25.8104 64.2546 25.5992 64.3413 25.3803 64.3399Z" fill="#CBB492"/>
<path d="M0.829976 26.2099C0.494326 26.2099 0.191265 26.0078 0.0629018 25.698C-0.0652395 25.3883 0.00592546 25.0307 0.244251 24.7937L12.5221 12.5212L24.7946 0.248472C25.1199 -0.0663388 25.6369 -0.0610181 25.9568 0.258892C26.2769 0.579023 26.282 1.0958 25.9672 1.42103L1.42213 25.9663C1.26539 26.123 1.05145 26.2111 0.829976 26.2099Z" fill="#CBB492"/>
<path d="M4.48731 43.4464C4.15165 43.4477 3.84837 43.2455 3.72023 42.936C3.59054 42.625 3.66192 42.2687 3.89892 42.0315L22.9711 22.9697L45.6921 0.248785C46.016 -0.0751157 46.5407 -0.0751157 46.8646 0.248785C47.1885 0.572685 47.1885 1.09744 46.8659 1.42134L5.07414 43.2027C4.91873 43.3584 4.70745 43.4464 4.48731 43.4464Z" fill="#CBB492"/>
<path d="M21.7253 67.9972C21.3896 67.9972 21.0877 67.795 20.9595 67.4853C20.8312 67.1758 20.9026 66.8196 21.1396 66.5823L65.0109 22.7046C65.1663 22.5478 65.3776 22.4609 65.5979 22.4609C65.8181 22.4609 66.0294 22.5478 66.1848 22.7046L67.7513 24.2711C68.0648 24.5963 68.061 25.1131 67.7409 25.4332C67.421 25.7531 66.904 25.7585 66.5787 25.4437L65.599 24.4629L22.3134 67.7485C22.1594 67.9065 21.9468 67.9959 21.7253 67.9972Z" fill="#CBB492"/>
<path d="M42.6171 67.9971C42.2817 67.9971 41.9797 67.7949 41.8501 67.4852C41.7219 67.1757 41.7931 66.8194 42.0303 66.5822L66.5818 42.0318C66.907 41.7248 67.4189 41.7326 67.735 42.05C68.0512 42.3662 68.0603 42.8767 67.7532 43.2031L43.2029 67.7534C43.0474 67.9091 42.8375 67.9971 42.6171 67.9971Z" fill="#CBB492"/>
<path d="M0.830746 67.9967C0.495095 67.9967 0.193364 67.7945 0.0650015 67.4848C-0.0633616 67.1753 0.00802516 66.819 0.24502 66.5818L53.979 12.8478L44.7085 3.56951L1.4229 46.8553C1.09767 47.1584 0.59109 47.1506 0.274949 46.8385C-0.0411918 46.5261 -0.0556021 46.0195 0.24502 45.6905L44.1217 1.81145C44.4456 1.48733 44.9717 1.48733 45.2942 1.81145L55.7424 12.2596C55.8991 12.415 55.986 12.6263 55.986 12.8465C55.986 13.0655 55.8991 13.2768 55.7424 13.4322L1.41647 67.753C1.26084 67.9098 1.05111 67.9967 0.830746 67.9967Z" fill="#CBB492"/>
<path d="M0.829976 25.9687C0.494326 25.9687 0.191265 25.7668 0.0629018 25.457C-0.0652395 25.146 0.00592546 24.7897 0.244251 24.5527L12.3991 12.3979L24.5523 0.243349C24.8775 -0.0714622 25.3945 -0.0676933 25.7147 0.252438C26.0346 0.572348 26.0397 1.08935 25.7249 1.41458L13.5716 13.5705L1.4157 25.7253C1.26007 25.8807 1.05034 25.9687 0.829976 25.9687Z" fill="#CBB492"/>
<path d="M65.3431 66.1723C65.123 66.1723 64.913 66.0856 64.7576 65.9286L1.94996 3.12385C1.62606 2.79995 1.62606 2.27386 1.94996 1.94996C2.27386 1.62606 2.79995 1.62606 3.12385 1.94996L65.9237 64.7523C66.1634 64.9882 66.2359 65.3458 66.1088 65.6566C65.9818 65.9676 65.6788 66.1709 65.3431 66.1723Z" fill="#CBB492"/>
<path d="M67.1693 67.9967H0.831103C0.37374 67.9967 0.00195312 67.6249 0.00195312 67.1675V0.829371C0.00195312 0.372009 0.37374 0 0.831103 0H67.1693C67.6266 0 67.9984 0.372009 67.9984 0.829371V67.1675C67.9984 67.6249 67.6266 67.9967 67.1693 67.9967ZM1.66025 66.3382H66.3401V1.65852H1.66025V66.3382Z" fill="#CBB492"/>
<path d="M2.53673 3.36596C2.31769 3.36596 2.10641 3.27906 1.94967 3.12365L0.243266 1.41458C-0.0715445 1.08935 -0.0675539 0.572348 0.252356 0.252438C0.572488 -0.0676933 1.08949 -0.0714622 1.41472 0.243349L3.12356 1.94976C3.36078 2.18675 3.43195 2.54435 3.3038 2.85406C3.17544 3.16377 2.87216 3.36596 2.53673 3.36596Z" fill="#CBB492"/>
<path d="M67.1688 67.9972C66.9487 67.9972 66.7387 67.9103 66.5831 67.7535L64.759 65.9254C64.4725 65.5975 64.4894 65.1053 64.7964 64.797C65.1035 64.4886 65.5959 64.4704 65.9251 64.7529L67.7532 66.5772C67.9929 66.8142 68.0667 67.1718 67.9386 67.4842C67.8102 67.795 67.5058 67.9985 67.1688 67.9972Z" fill="#CBB492"/>
</svg>
