<svg width="74" height="65" viewBox="0 0 74 65" fill="none" xmlns="http://www.w3.org/2000/svg">
<mask id="mask0_125_687" style="mask-type:luminance" maskUnits="userSpaceOnUse" x="0" y="0" width="74" height="65">
<path d="M0 0H74V64.1025H0V0Z" fill="white"/>
</mask>
<g mask="url(#mask0_125_687)">
<path d="M38.0669 58.6663C38.0669 58.7013 38.0653 58.7361 38.0617 58.7709C38.0584 58.8057 38.0532 58.84 38.0465 58.8744C38.0396 58.9086 38.0311 58.9425 38.0211 58.9759C38.0109 59.0094 37.999 59.0421 37.9857 59.0744C37.9723 59.1067 37.9573 59.1384 37.9409 59.169C37.9244 59.1998 37.9065 59.2298 37.8871 59.2588C37.8678 59.2879 37.8469 59.3159 37.8248 59.3429C37.8026 59.37 37.7792 59.3959 37.7544 59.4204C37.7298 59.4452 37.704 59.4686 37.6769 59.4909C37.6498 59.5129 37.6219 59.5338 37.5928 59.5532C37.5638 59.5725 37.5338 59.5904 37.5032 59.6069C37.4723 59.6234 37.4407 59.6384 37.4084 59.6517C37.3761 59.665 37.3434 59.6769 37.3098 59.6869C37.2765 59.6971 37.2426 59.7057 37.2084 59.7125C37.174 59.7192 37.1396 59.7244 37.1048 59.7277C37.0701 59.7313 37.0353 59.7329 37.0003 59.7329C36.9653 59.7329 36.9305 59.7313 36.8957 59.7277C36.8609 59.7244 36.8265 59.7192 36.7921 59.7125C36.758 59.7057 36.724 59.6971 36.6907 59.6869C36.6571 59.6769 36.6244 59.665 36.5921 59.6517C36.5598 59.6384 36.5282 59.6234 36.4973 59.6069C36.4667 59.5904 36.4367 59.5725 36.4076 59.5532C36.3786 59.5338 36.3507 59.5129 36.3236 59.4909C36.2965 59.4686 36.2707 59.4452 36.2461 59.4204C36.2213 59.3959 36.198 59.37 36.1757 59.3429C36.1536 59.3159 36.1328 59.2879 36.1134 59.2588C36.094 59.2298 36.0761 59.1998 36.0596 59.169C36.043 59.1384 36.0282 59.1067 36.0148 59.0744C36.0015 59.0421 35.9896 59.0094 35.9794 58.9759C35.9694 58.9425 35.9609 58.9086 35.954 58.8744C35.9473 58.84 35.9421 58.8057 35.9388 58.7709C35.9353 58.7361 35.9336 58.7013 35.9336 58.6663C35.9336 58.6313 35.9353 58.5965 35.9388 58.5617C35.9421 58.5269 35.9473 58.4925 35.954 58.4582C35.9609 58.424 35.9694 58.39 35.9794 58.3567C35.9896 58.3232 36.0015 58.2902 36.0148 58.2582C36.0282 58.2259 36.043 58.1942 36.0596 58.1634C36.0761 58.1325 36.094 58.1027 36.1134 58.0736C36.1328 58.0446 36.1536 58.0165 36.1757 57.9896C36.198 57.9625 36.2213 57.9367 36.2461 57.9121C36.2707 57.8873 36.2965 57.864 36.3236 57.8417C36.3507 57.8196 36.3786 57.7988 36.4076 57.7794C36.4367 57.76 36.4667 57.7421 36.4973 57.7257C36.5282 57.709 36.5598 57.6942 36.5921 57.6809C36.6244 57.6673 36.6571 57.6557 36.6907 57.6454C36.724 57.6354 36.758 57.6269 36.7921 57.62C36.8265 57.6134 36.8609 57.6082 36.8957 57.6048C36.9305 57.6013 36.9653 57.5996 37.0003 57.5996C37.0353 57.5996 37.0701 57.6013 37.1048 57.6048C37.1396 57.6082 37.174 57.6134 37.2084 57.62C37.2426 57.6269 37.2765 57.6354 37.3098 57.6454C37.3434 57.6557 37.3761 57.6675 37.4084 57.6809C37.4407 57.6942 37.4723 57.709 37.5032 57.7257C37.5338 57.7421 37.5638 57.76 37.5928 57.7794C37.6219 57.7988 37.6498 57.8196 37.6769 57.8417C37.704 57.864 37.7298 57.8873 37.7544 57.9121C37.7792 57.9367 37.8026 57.9625 37.8248 57.9896C37.8469 58.0165 37.8678 58.0446 37.8871 58.0736C37.9065 58.1027 37.9244 58.1325 37.9409 58.1634C37.9573 58.1942 37.9723 58.2259 37.9857 58.2582C37.999 58.2902 38.0109 58.3232 38.0211 58.3567C38.0311 58.39 38.0396 58.424 38.0465 58.4582C38.0532 58.4925 38.0584 58.5269 38.0617 58.5617C38.0653 58.5965 38.0669 58.6313 38.0669 58.6663Z" fill="#CBB492"/>
<path d="M48.3427 46.2667C48.5892 46.1375 48.8335 46.0044 49.0756 45.8671C49.3177 45.7296 49.5575 45.5881 49.7946 45.4427C50.0319 45.2973 50.2667 45.1477 50.499 44.9942C50.731 44.8408 50.9606 44.6833 51.1875 44.5221C51.4144 44.3608 51.6383 44.1958 51.8596 44.0269C52.0808 43.8581 52.2992 43.6854 52.5146 43.5092C52.73 43.3329 52.9423 43.1531 53.1517 42.9696C53.3608 42.786 53.5671 42.5992 53.77 42.4085C53.9729 42.2181 54.1725 42.0244 54.369 41.8271C54.5652 41.6298 54.7581 41.4292 54.9477 41.2254C55.1373 41.0217 55.3233 40.8146 55.5058 40.6046C55.6883 40.3944 55.8673 40.1813 56.0425 39.965C56.2179 39.7488 56.3894 39.5298 56.5573 39.3077C56.7252 39.0856 56.8892 38.8608 57.0494 38.6333C57.2096 38.4056 57.3658 38.1754 57.5183 37.9425C57.6706 37.7096 57.8192 37.4742 57.9635 37.2363C58.1079 36.9983 58.2483 36.7581 58.3846 36.5154C58.5208 36.2727 58.6529 36.0277 58.7808 35.7804C58.9088 35.5333 59.0325 35.284 59.1519 35.0327C59.2715 34.7812 59.3867 34.5279 59.4975 34.2727C59.6083 34.0173 59.7148 33.7602 59.8171 33.5013C59.9192 33.2425 60.0169 32.9819 60.1102 32.7196C60.2035 32.4575 60.2923 32.1938 60.3767 31.9283C60.461 31.6631 60.5408 31.3967 60.616 31.1287C60.6915 30.8606 60.7621 30.5915 60.8283 30.3213C60.8946 30.0508 60.956 29.7794 61.0129 29.5071C61.07 29.2346 61.1223 28.9613 61.17 28.6871C61.2175 28.4127 61.2606 28.1379 61.299 27.8621C61.3373 27.5865 61.3708 27.3102 61.3998 27.0333C61.4288 26.7567 61.4531 26.4794 61.4727 26.2017C61.4923 25.9242 61.5071 25.6462 61.5171 25.3681C61.5273 25.09 61.5327 24.8117 61.5333 24.5333C61.5333 11.0054 50.5279 0 37 0C23.4721 0 12.4667 11.0054 12.4667 24.5333C12.4673 24.8117 12.4727 25.09 12.4829 25.3681C12.4929 25.6462 12.5077 25.9242 12.5273 26.2017C12.5469 26.4794 12.5713 26.7567 12.6002 27.0333C12.6292 27.3102 12.6627 27.5865 12.701 27.8621C12.7394 28.1379 12.7825 28.4127 12.83 28.6871C12.8777 28.9613 12.93 29.2346 12.9871 29.5071C13.044 29.7794 13.1054 30.0508 13.1717 30.3213C13.2379 30.5915 13.3085 30.8606 13.384 31.1287C13.4592 31.3967 13.539 31.6631 13.6233 31.9283C13.7077 32.1938 13.7965 32.4575 13.8898 32.7196C13.9831 32.9819 14.0808 33.2425 14.1829 33.5013C14.2852 33.7602 14.3917 34.0173 14.5025 34.2727C14.6133 34.5279 14.7285 34.7812 14.8481 35.0327C14.9675 35.284 15.0913 35.5333 15.2192 35.7804C15.3471 36.0277 15.4792 36.2727 15.6154 36.5154C15.7517 36.7581 15.8921 36.9983 16.0365 37.2363C16.1808 37.4742 16.3294 37.7096 16.4817 37.9425C16.6342 38.1754 16.7904 38.4056 16.9506 38.6333C17.1108 38.8608 17.2748 39.0856 17.4427 39.3077C17.6106 39.5298 17.7821 39.7488 17.9575 39.965C18.1327 40.1813 18.3117 40.3944 18.4942 40.6046C18.6767 40.8146 18.8627 41.0217 19.0523 41.2254C19.2419 41.4292 19.4348 41.6298 19.631 41.8271C19.8275 42.0244 20.0271 42.2181 20.23 42.4085C20.4329 42.5992 20.6392 42.786 20.8483 42.9696C21.0577 43.1531 21.27 43.3329 21.4854 43.5092C21.7008 43.6854 21.9192 43.8581 22.1404 44.0269C22.3617 44.1958 22.5856 44.3608 22.8125 44.5221C23.0394 44.6833 23.269 44.8408 23.501 44.9942C23.7333 45.1477 23.9681 45.2973 24.2054 45.4427C24.4425 45.5881 24.6823 45.7296 24.9244 45.8671C25.1665 46.0044 25.4108 46.1375 25.6573 46.2667C11.9467 47.3 5 50.2121 5 54.9333C5 62.4267 22.4013 64 37 64C51.5988 64 69 62.4267 69 54.9333C69 50.2121 62.0533 47.3 48.3427 46.2667ZM14.6 24.5333C14.6 12.1827 24.6479 2.13333 37 2.13333C49.3521 2.13333 59.4 12.1827 59.4 24.5333C59.3996 24.7998 59.3942 25.0662 59.3842 25.3327C59.3742 25.599 59.3596 25.865 59.34 26.1308C59.3206 26.3967 59.2965 26.6621 59.2675 26.9271C59.2385 27.1921 59.205 27.4565 59.1667 27.7202C59.1283 27.984 59.0854 28.2469 59.0377 28.5092C58.99 28.7715 58.9377 29.0327 58.8806 29.2931C58.8237 29.5533 58.7621 29.8127 58.6958 30.0708C58.6298 30.329 58.559 30.586 58.4835 30.8417C58.4081 31.0973 58.3283 31.3515 58.244 31.6044C58.1596 31.8571 58.0706 32.1083 57.9773 32.3581C57.884 32.6077 57.7863 32.8556 57.6842 33.1019C57.5819 33.3479 57.4754 33.5923 57.3646 33.8346C57.2537 34.0771 57.1385 34.3173 57.0192 34.5556C56.8998 34.794 56.7763 35.03 56.6483 35.264C56.5206 35.4977 56.3885 35.7294 56.2525 35.9585C56.1165 36.1877 55.9765 36.4144 55.8323 36.6385C55.6881 36.8627 55.54 37.0844 55.3881 37.3033C55.236 37.5223 55.0802 37.7383 54.9206 37.9519C54.7608 38.1652 54.5973 38.3756 54.4302 38.5833C54.2629 38.7908 54.0921 38.9954 53.9177 39.1969C53.7433 39.3983 53.5652 39.5967 53.3838 39.7919C53.2021 39.9869 53.0173 40.1787 52.829 40.3675C52.6406 40.556 52.449 40.7412 52.254 40.9229C52.059 41.1046 51.8608 41.2829 51.6596 41.4575C51.4583 41.6323 51.254 41.8033 51.0465 41.9708C50.8392 42.1381 50.629 42.3019 50.4156 42.4619C50.2025 42.6219 49.9865 42.7779 49.7677 42.9302C49.549 43.0825 49.3275 43.2308 49.1035 43.3752C48.8796 43.5196 48.6529 43.6598 48.424 43.7962C48.1948 43.9325 47.9635 44.0648 47.7298 44.1927C47.496 44.3208 47.26 44.4448 47.0219 44.5644C46.7838 44.6842 46.5435 44.7996 46.3013 44.9106C46.1844 44.964 46.0804 45.0358 45.9894 45.1267L37.7027 53.436C37.6569 53.4765 37.6077 53.5129 37.5556 53.545C37.5035 53.5771 37.449 53.6044 37.3921 53.6271C37.3354 53.6498 37.2769 53.6675 37.2171 53.68C37.1573 53.6927 37.0967 53.7002 37.0354 53.7025C36.9744 53.7046 36.9133 53.7017 36.8527 53.6933C36.7921 53.6852 36.7325 53.6717 36.6742 53.6533C36.6158 53.6348 36.5596 53.6115 36.5052 53.5831C36.4508 53.555 36.3994 53.5223 36.3506 53.4854L33.3679 50.496V50.4894L28.0173 45.1267C27.9263 45.0358 27.8223 44.964 27.7054 44.9106C27.4629 44.7996 27.2227 44.6842 26.9846 44.5646C26.7463 44.445 26.5102 44.3213 26.2765 44.1931C26.0427 44.065 25.811 43.9329 25.5821 43.7967C25.3529 43.6604 25.1263 43.52 24.9021 43.3758C24.6781 43.2315 24.4567 43.0831 24.2377 42.9308C24.019 42.7788 23.8029 42.6227 23.5896 42.4627C23.3763 42.3029 23.1658 42.1392 22.9583 41.9717C22.751 41.8044 22.5465 41.6333 22.3452 41.4588C22.1438 41.284 21.9456 41.1058 21.7506 40.924C21.5556 40.7423 21.3638 40.5571 21.1754 40.3685C20.9869 40.18 20.8019 39.9881 20.6202 39.7931C20.4388 39.5979 20.2606 39.3996 20.086 39.1981C19.9115 38.9967 19.7406 38.7921 19.5733 38.5846C19.406 38.3771 19.2425 38.1665 19.0827 37.9531C18.9229 37.7398 18.7671 37.5235 18.615 37.3046C18.4629 37.0856 18.3148 36.8642 18.1704 36.64C18.0263 36.4156 17.8863 36.189 17.75 35.9598C17.614 35.7306 17.4819 35.499 17.354 35.2652C17.226 35.0312 17.1025 34.7952 16.9829 34.5569C16.8635 34.3185 16.7483 34.0781 16.6373 33.8358C16.5265 33.5933 16.4198 33.3492 16.3177 33.1029C16.2154 32.8567 16.1175 32.6087 16.0242 32.3592C15.9308 32.1094 15.8419 31.8581 15.7573 31.6054C15.6729 31.3525 15.5929 31.0981 15.5175 30.8425C15.4421 30.5869 15.3713 30.3298 15.305 30.0717C15.2388 29.8135 15.1771 29.5542 15.1202 29.2938C15.0631 29.0333 15.0106 28.7721 14.9629 28.5098C14.9152 28.2475 14.8723 27.9844 14.8337 27.7206C14.7954 27.4569 14.7619 27.1925 14.7329 26.9275C14.704 26.6625 14.6796 26.3971 14.6602 26.1313C14.6406 25.8652 14.6258 25.5992 14.6158 25.3327C14.6058 25.0665 14.6006 24.8 14.6 24.5333ZM37 61.8667C18.5773 61.8667 7.13333 59.2106 7.13333 54.9333C7.13333 51.4388 14.7788 49.0106 28.1121 48.2479L30.184 50.324C23.4854 50.7 14.6 51.7921 14.6 54.9333C14.6 58.4813 25.9267 59.4173 32.6773 59.6573H32.716C32.7508 59.6579 32.7858 59.6569 32.8206 59.654C32.8554 59.6513 32.89 59.6467 32.9244 59.6404C32.9587 59.6342 32.9929 59.6265 33.0265 59.6169C33.06 59.6073 33.0931 59.596 33.1256 59.5833C33.1581 59.5704 33.19 59.556 33.221 59.5402C33.2521 59.5242 33.2823 59.5069 33.3117 59.4879C33.341 59.469 33.3696 59.4487 33.3969 59.4271C33.4244 59.4054 33.4506 59.3823 33.4756 59.3581C33.5008 59.3338 33.5248 59.3083 33.5473 59.2817C33.57 59.2552 33.5913 59.2275 33.6112 59.1987C33.631 59.17 33.6496 59.1404 33.6667 59.11C33.6835 59.0794 33.699 59.0481 33.7129 59.016C33.7269 58.9842 33.7392 58.9515 33.75 58.9181C33.7606 58.885 33.7698 58.8512 33.7773 58.8171C33.7846 58.7829 33.7904 58.7485 33.7944 58.7138C33.7983 58.6792 33.8006 58.6442 33.8013 58.6094C33.8019 58.5744 33.8008 58.5396 33.7979 58.5046C33.7952 58.4698 33.7906 58.4352 33.7844 58.4008C33.7783 58.3665 33.7704 58.3325 33.7608 58.299C33.7513 58.2652 33.74 58.2323 33.7273 58.1998C33.7144 58.1673 33.7 58.1354 33.6842 58.1044C33.6683 58.0731 33.6508 58.0429 33.6319 58.0135C33.6131 57.9842 33.5927 57.9558 33.571 57.9283C33.5494 57.901 33.5265 57.8748 33.5021 57.8496C33.4779 57.8244 33.4523 57.8006 33.4258 57.7779C33.3992 57.7552 33.3715 57.734 33.3427 57.7142C33.3142 57.6942 33.2844 57.6758 33.254 57.6588C33.2233 57.6417 33.1921 57.6263 33.16 57.6123C33.1281 57.5983 33.0954 57.586 33.0621 57.5754C33.029 57.5646 32.9952 57.5556 32.961 57.5481C32.9269 57.5406 32.8925 57.535 32.8577 57.531C32.8231 57.5269 32.7883 57.5246 32.7533 57.524C22.5413 57.16 17.8 55.6946 16.8479 54.9333C17.7812 54.1867 22.384 52.7612 32.2213 52.364L34.8879 55.0413C35.0312 55.1667 35.1846 55.2779 35.3479 55.3756C35.5113 55.4731 35.6821 55.5552 35.8602 55.6221C36.0383 55.6888 36.221 55.739 36.4083 55.7727C36.5956 55.8065 36.7844 55.8231 36.9746 55.8227C37.174 55.8221 37.3715 55.8035 37.5673 55.7671C37.7631 55.7308 37.9542 55.6771 38.1404 55.606C38.3267 55.5352 38.5048 55.4481 38.6754 55.345C38.8458 55.2417 39.0056 55.1242 39.1546 54.9921L41.776 52.364C51.6121 52.764 56.2094 54.1867 57.1467 54.9333C56.1921 55.6946 51.4546 57.16 41.2427 57.5267C41.2077 57.5273 41.1729 57.5296 41.1381 57.5335C41.1035 57.5377 41.0692 57.5433 41.035 57.5508C41.0008 57.5581 40.9671 57.5673 40.9338 57.5779C40.9006 57.5888 40.8679 57.601 40.8358 57.615C40.8037 57.629 40.7725 57.6444 40.7421 57.6615C40.7115 57.6783 40.6819 57.6969 40.6531 57.7169C40.6246 57.7367 40.5969 57.7579 40.5702 57.7806C40.5435 57.8033 40.5181 57.8271 40.494 57.8523C40.4696 57.8775 40.4467 57.9038 40.425 57.931C40.4033 57.9585 40.3829 57.9869 40.364 58.0163C40.3452 58.0456 40.3277 58.0758 40.3119 58.1069C40.2958 58.1381 40.2815 58.1698 40.2687 58.2023C40.2558 58.2348 40.2448 58.2679 40.2352 58.3015C40.2256 58.3352 40.2177 58.3692 40.2115 58.4035C40.2052 58.4379 40.2008 58.4725 40.1979 58.5073C40.1952 58.5421 40.194 58.5771 40.1946 58.6121C40.1952 58.6469 40.1975 58.6817 40.2017 58.7165C40.2056 58.7513 40.2115 58.7856 40.2188 58.8198C40.2262 58.854 40.2352 58.8875 40.246 58.9208C40.2567 58.9542 40.2692 58.9867 40.2829 59.0188C40.2969 59.0508 40.3125 59.0821 40.3294 59.1127C40.3465 59.1431 40.3648 59.1727 40.3848 59.2015C40.4048 59.2302 40.426 59.2579 40.4485 59.2844C40.4713 59.311 40.4952 59.3365 40.5202 59.3608C40.5454 59.385 40.5717 59.4081 40.5992 59.4298C40.6265 59.4515 40.6548 59.4717 40.6842 59.4906C40.7135 59.5096 40.744 59.5269 40.775 59.5429C40.806 59.5588 40.8379 59.5731 40.8704 59.5858C40.9029 59.5988 40.936 59.61 40.9696 59.6194C41.0031 59.629 41.0371 59.6369 41.0715 59.6431C41.1058 59.6494 41.1406 59.654 41.1754 59.6567C41.2102 59.6596 41.245 59.6606 41.28 59.66H41.3188C48.0746 59.4173 59.4 58.4813 59.4 54.9333C59.4 51.7933 50.516 50.7013 43.8173 50.324L45.8879 48.2479C59.2227 49.0106 66.8667 51.4388 66.8667 54.9333C66.8667 59.2106 55.4227 61.8667 37 61.8667Z" fill="#CBB492"/>
<path d="M57.2677 24.5333C57.2677 13.3587 48.1756 4.2666 37.001 4.2666C25.8265 4.2666 16.7344 13.3587 16.7344 24.5333C16.7344 35.7079 25.8265 44.7999 37.001 44.7999C48.1756 44.7999 57.2677 35.7079 57.2677 24.5333ZM18.8677 24.5333C18.8677 14.5333 27.001 6.39994 37.001 6.39994C47.001 6.39994 55.1344 14.5333 55.1344 24.5333C55.1344 34.5333 47.001 42.6666 37.001 42.6666C27.001 42.6666 18.8677 34.5333 18.8677 24.5333Z" fill="#CBB492"/>
<path d="M47.6668 19.7335C47.6666 19.5939 47.663 19.4544 47.6562 19.315C47.6491 19.1756 47.6387 19.0362 47.6249 18.8975C47.611 18.7585 47.5939 18.62 47.5733 18.4819C47.5526 18.3437 47.5287 18.2062 47.5014 18.0694C47.4739 17.9325 47.4433 17.7962 47.4093 17.661C47.3751 17.5256 47.3378 17.391 47.2972 17.2575C47.2566 17.1239 47.2128 16.9914 47.1658 16.86C47.1185 16.7285 47.0683 16.5983 47.0147 16.4694C46.9612 16.3404 46.9047 16.2129 46.8449 16.0867C46.7851 15.9606 46.7222 15.8358 46.6564 15.7127C46.5905 15.5898 46.5218 15.4683 46.4499 15.3485C46.378 15.2287 46.3035 15.1108 46.2258 14.9948C46.1483 14.8787 46.0678 14.7648 45.9847 14.6525C45.9014 14.5404 45.8155 14.4304 45.727 14.3225C45.6385 14.2146 45.5472 14.1089 45.4535 14.0056C45.3597 13.9021 45.2635 13.801 45.1647 13.7023C45.066 13.6035 44.9649 13.5073 44.8614 13.4135C44.758 13.3198 44.6524 13.2285 44.5445 13.14C44.4366 13.0514 44.3266 12.9656 44.2143 12.8823C44.1022 12.7992 43.9883 12.7187 43.8722 12.6412C43.756 12.5635 43.6383 12.4889 43.5185 12.4171C43.3987 12.3452 43.2772 12.2764 43.1543 12.2106C43.0312 12.1448 42.9064 12.0819 42.7803 12.0221C42.6541 11.9623 42.5266 11.9058 42.3976 11.8523C42.2687 11.7987 42.1385 11.7485 42.007 11.7012C41.8755 11.6542 41.743 11.6104 41.6095 11.5698C41.476 11.5292 41.3414 11.4919 41.206 11.4577C41.0705 11.4237 40.9345 11.3931 40.7976 11.3656C40.6608 11.3383 40.5233 11.3144 40.3851 11.2937C40.247 11.2731 40.1085 11.256 39.9695 11.2421C39.8308 11.2283 39.6914 11.2179 39.552 11.2108C39.4126 11.2039 39.273 11.2004 39.1335 11.2002H31.6668C31.562 11.2002 31.4574 11.2054 31.353 11.2156C31.2489 11.2258 31.1453 11.2412 31.0424 11.2617C30.9397 11.2821 30.8383 11.3075 30.7378 11.3379C30.6376 11.3683 30.5391 11.4037 30.4422 11.4437C30.3453 11.4839 30.2508 11.5287 30.1583 11.5781C30.066 11.6275 29.9762 11.6812 29.8889 11.7396C29.8018 11.7977 29.7178 11.86 29.6368 11.9267C29.5558 11.9931 29.4783 12.0633 29.4041 12.1375C29.3299 12.2117 29.2597 12.2892 29.1933 12.3702C29.1266 12.4512 29.0643 12.5352 29.0062 12.6223C28.9478 12.7096 28.8941 12.7994 28.8447 12.8917C28.7953 12.9842 28.7505 13.0787 28.7103 13.1756C28.6703 13.2725 28.6349 13.371 28.6045 13.4712C28.5741 13.5717 28.5487 13.6731 28.5283 13.7758C28.5078 13.8787 28.4924 13.9823 28.4822 14.0864C28.472 14.1908 28.4668 14.2954 28.4668 14.4002V34.6669C28.4668 34.7717 28.472 34.8762 28.4822 34.9806C28.4924 35.0848 28.5078 35.1883 28.5283 35.2912C28.5487 35.3939 28.5741 35.4954 28.6045 35.5958C28.6349 35.696 28.6703 35.7946 28.7103 35.8914C28.7505 35.9883 28.7953 36.0829 28.8447 36.1754C28.8941 36.2677 28.9478 36.3575 29.0062 36.4448C29.0643 36.5319 29.1266 36.6158 29.1933 36.6969C29.2597 36.7779 29.3299 36.8554 29.4041 36.9296C29.4783 37.0037 29.5558 37.0739 29.6368 37.1404C29.7178 37.2071 29.8018 37.2694 29.8889 37.3275C29.9762 37.3858 30.066 37.4396 30.1583 37.4889C30.2508 37.5383 30.3453 37.5831 30.4422 37.6233C30.5391 37.6633 30.6376 37.6987 30.7378 37.7292C30.8383 37.7596 30.9397 37.785 31.0424 37.8054C31.1453 37.8258 31.2489 37.8412 31.353 37.8514C31.4574 37.8617 31.562 37.8669 31.6668 37.8669C31.7716 37.8669 31.8762 37.8617 31.9805 37.8514C32.0847 37.8412 32.1883 37.8258 32.2912 37.8054C32.3939 37.785 32.4953 37.7596 32.5958 37.7292C32.696 37.6987 32.7945 37.6633 32.8914 37.6233C32.9883 37.5831 33.0828 37.5383 33.1753 37.4889C33.2676 37.4396 33.3574 37.3858 33.4447 37.3275C33.5318 37.2694 33.6158 37.2071 33.6968 37.1404C33.7778 37.0739 33.8553 37.0037 33.9295 36.9296C34.0037 36.8554 34.0739 36.7779 34.1403 36.6969C34.207 36.6158 34.2693 36.5319 34.3274 36.4448C34.3858 36.3575 34.4395 36.2677 34.4889 36.1754C34.5383 36.0829 34.583 35.9883 34.6233 35.8914C34.6633 35.7946 34.6987 35.696 34.7291 35.5958C34.7595 35.4954 34.7849 35.3939 34.8053 35.2912C34.8258 35.1883 34.8412 35.0848 34.8514 34.9806C34.8616 34.8762 34.8668 34.7717 34.8668 34.6669V28.2669H39.1335C39.273 28.2667 39.4126 28.2631 39.552 28.2562C39.6914 28.2492 39.8308 28.2387 39.9695 28.225C40.1085 28.211 40.247 28.1939 40.3851 28.1733C40.5233 28.1527 40.6608 28.1287 40.7976 28.1014C40.9345 28.0739 41.0705 28.0433 41.206 28.0094C41.3414 27.9752 41.476 27.9379 41.6095 27.8973C41.743 27.8567 41.8755 27.8129 42.007 27.7658C42.1385 27.7185 42.2687 27.6683 42.3976 27.6148C42.5266 27.5612 42.6541 27.5048 42.7803 27.445C42.9064 27.3852 43.0312 27.3223 43.1543 27.2564C43.2772 27.1906 43.3987 27.1219 43.5185 27.05C43.6383 26.9781 43.756 26.9035 43.8722 26.8258C43.9883 26.7483 44.1022 26.6679 44.2143 26.5848C44.3266 26.5014 44.4366 26.4156 44.5445 26.3271C44.6524 26.2385 44.758 26.1473 44.8614 26.0535C44.9649 25.9598 45.066 25.8635 45.1647 25.7648C45.2635 25.666 45.3597 25.565 45.4535 25.4614C45.5472 25.3581 45.6385 25.2525 45.727 25.1446C45.8155 25.0367 45.9014 24.9267 45.9847 24.8144C46.0678 24.7023 46.1483 24.5883 46.2258 24.4723C46.3035 24.356 46.378 24.2383 46.4499 24.1185C46.5218 23.9987 46.5905 23.8773 46.6564 23.7544C46.7222 23.6312 46.7851 23.5064 46.8449 23.3804C46.9047 23.2542 46.9612 23.1267 47.0147 22.9977C47.0683 22.8687 47.1185 22.7385 47.1658 22.6071C47.2128 22.4756 47.2566 22.3431 47.2972 22.2096C47.3378 22.076 47.3751 21.9414 47.4093 21.806C47.4433 21.6706 47.4739 21.5346 47.5014 21.3977C47.5287 21.2608 47.5526 21.1233 47.5733 20.9852C47.5939 20.8471 47.611 20.7085 47.6249 20.5696C47.6387 20.4308 47.6491 20.2914 47.6562 20.1521C47.663 20.0127 47.6666 19.8731 47.6668 19.7335ZM33.8001 26.1335C33.7651 26.1335 33.7303 26.1352 33.6955 26.1387C33.6608 26.1421 33.6264 26.1473 33.592 26.1539C33.5578 26.1608 33.5239 26.1694 33.4905 26.1794C33.457 26.1896 33.4243 26.2014 33.392 26.2148C33.3597 26.2281 33.328 26.2431 33.2972 26.2596C33.2666 26.276 33.2366 26.2939 33.2074 26.3133C33.1785 26.3327 33.1505 26.3535 33.1235 26.3756C33.0964 26.3979 33.0705 26.4212 33.046 26.446C33.0212 26.4706 32.9978 26.4964 32.9755 26.5235C32.9535 26.5504 32.9326 26.5785 32.9133 26.6075C32.8939 26.6367 32.876 26.6667 32.8595 26.6973C32.843 26.7281 32.828 26.7598 32.8147 26.7921C32.8014 26.8244 32.7895 26.8571 32.7793 26.8906C32.7693 26.9239 32.7608 26.9579 32.7539 26.9921C32.7472 27.0264 32.742 27.0608 32.7387 27.0956C32.7351 27.1304 32.7335 27.1652 32.7335 27.2002V34.6669C32.7335 34.7019 32.7318 34.7367 32.7283 34.7714C32.7249 34.8062 32.7197 34.8406 32.713 34.875C32.7062 34.9092 32.6976 34.9431 32.6876 34.9764C32.6774 35.01 32.6655 35.0427 32.6522 35.075C32.6389 35.1073 32.6239 35.1389 32.6074 35.1698C32.591 35.2004 32.573 35.2304 32.5537 35.2594C32.5343 35.2885 32.5135 35.3164 32.4914 35.3435C32.4691 35.3706 32.4458 35.3964 32.421 35.421C32.3964 35.4458 32.3705 35.4692 32.3435 35.4914C32.3164 35.5135 32.2885 35.5344 32.2593 35.5537C32.2303 35.5731 32.2003 35.591 32.1697 35.6075C32.1389 35.6239 32.1072 35.6389 32.0749 35.6523C32.0426 35.6656 32.0099 35.6775 31.9764 35.6875C31.943 35.6977 31.9091 35.7062 31.8749 35.7131C31.8405 35.7198 31.8062 35.725 31.7714 35.7283C31.7366 35.7319 31.7018 35.7335 31.6668 35.7335C31.6318 35.7335 31.597 35.7319 31.5622 35.7283C31.5274 35.725 31.493 35.7198 31.4587 35.7131C31.4245 35.7062 31.3905 35.6977 31.3572 35.6875C31.3237 35.6775 31.291 35.6656 31.2587 35.6523C31.2264 35.6389 31.1947 35.6239 31.1639 35.6075C31.1333 35.591 31.1033 35.5731 31.0741 35.5537C31.0451 35.5344 31.0172 35.5135 30.9901 35.4914C30.963 35.4692 30.9372 35.4458 30.9126 35.421C30.8878 35.3964 30.8645 35.3706 30.8422 35.3435C30.8201 35.3164 30.7993 35.2885 30.7799 35.2594C30.7605 35.2304 30.7426 35.2004 30.7262 35.1698C30.7095 35.1389 30.6947 35.1073 30.6814 35.075C30.668 35.0427 30.6562 35.01 30.646 34.9764C30.636 34.9431 30.6274 34.9092 30.6205 34.875C30.6139 34.8406 30.6087 34.8062 30.6053 34.7714C30.6018 34.7367 30.6001 34.7019 30.6001 34.6669V14.4002C30.6001 14.3652 30.6018 14.3304 30.6053 14.2956C30.6087 14.2608 30.6139 14.2264 30.6205 14.1921C30.6274 14.1579 30.636 14.1239 30.646 14.0906C30.6562 14.0571 30.668 14.0244 30.6814 13.9921C30.6947 13.9598 30.7097 13.9281 30.7262 13.8973C30.7426 13.8667 30.7605 13.8367 30.7799 13.8075C30.7993 13.7785 30.8201 13.7506 30.8422 13.7235C30.8645 13.6964 30.8878 13.6706 30.9126 13.646C30.9372 13.6212 30.963 13.5979 30.9901 13.5756C31.0172 13.5535 31.0451 13.5327 31.0741 13.5133C31.1033 13.4939 31.1333 13.476 31.1639 13.4596C31.1947 13.4431 31.2264 13.4281 31.2587 13.4148C31.291 13.4014 31.3237 13.3896 31.3572 13.3794C31.3905 13.3694 31.4245 13.3608 31.4587 13.3539C31.493 13.3473 31.5274 13.3421 31.5622 13.3387C31.597 13.3352 31.6318 13.3335 31.6668 13.3335H39.1335C39.2383 13.3335 39.3428 13.336 39.4474 13.3412C39.5522 13.3464 39.6566 13.3542 39.7608 13.3644C39.8649 13.3746 39.9689 13.3875 40.0726 13.4027C40.1762 13.4181 40.2793 13.436 40.382 13.4564C40.4847 13.4769 40.587 13.4998 40.6885 13.5254C40.7901 13.5508 40.891 13.5787 40.9914 13.6092C41.0916 13.6396 41.191 13.6723 41.2895 13.7077C41.3883 13.7429 41.486 13.7806 41.5826 13.8206C41.6793 13.8608 41.7751 13.9031 41.8697 13.9479C41.9645 13.9927 42.058 14.0398 42.1503 14.0892C42.2428 14.1385 42.3339 14.1902 42.4237 14.2442C42.5135 14.2979 42.602 14.3539 42.6891 14.4121C42.7762 14.4704 42.8618 14.5306 42.946 14.5929C43.0301 14.6554 43.1126 14.7198 43.1937 14.7862C43.2745 14.8527 43.3539 14.921 43.4314 14.9914C43.5091 15.0619 43.5849 15.1339 43.6589 15.2081C43.733 15.2821 43.8051 15.3579 43.8755 15.4356C43.946 15.5131 44.0143 15.5925 44.0808 15.6733C44.1472 15.7544 44.2116 15.8369 44.2739 15.921C44.3364 16.0052 44.3966 16.0908 44.4549 16.1779C44.513 16.265 44.5691 16.3535 44.6228 16.4433C44.6768 16.5331 44.7285 16.6242 44.7778 16.7167C44.8272 16.8089 44.8743 16.9025 44.9189 16.9971C44.9637 17.0919 45.0062 17.1875 45.0464 17.2844C45.0864 17.381 45.1241 17.4787 45.1593 17.5775C45.1947 17.676 45.2274 17.7754 45.2578 17.8756C45.2883 17.976 45.3162 18.0769 45.3416 18.1785C45.367 18.28 45.3901 18.3823 45.4105 18.485C45.431 18.5877 45.4489 18.6908 45.4641 18.7944C45.4795 18.8981 45.4924 19.0021 45.5026 19.1062C45.5128 19.2104 45.5205 19.3148 45.5258 19.4196C45.531 19.5242 45.5335 19.6287 45.5335 19.7335C45.5335 19.8383 45.531 19.9429 45.5258 20.0475C45.5205 20.1521 45.5128 20.2567 45.5026 20.3608C45.4924 20.465 45.4795 20.5689 45.4641 20.6727C45.4489 20.7762 45.431 20.8794 45.4105 20.9821C45.3901 21.0848 45.367 21.1871 45.3416 21.2885C45.3162 21.3902 45.2883 21.491 45.2578 21.5914C45.2274 21.6917 45.1947 21.791 45.1593 21.8896C45.1241 21.9883 45.0864 22.086 45.0464 22.1827C45.0062 22.2794 44.9637 22.3752 44.9189 22.4698C44.8743 22.5646 44.8272 22.6581 44.7778 22.7504C44.7285 22.8429 44.6768 22.9339 44.6228 23.0237C44.5691 23.1135 44.513 23.2021 44.4549 23.2892C44.3966 23.3762 44.3364 23.4619 44.2739 23.546C44.2116 23.6302 44.1472 23.7127 44.0808 23.7937C44.0143 23.8746 43.946 23.9539 43.8755 24.0314C43.8051 24.1092 43.733 24.185 43.6589 24.2589C43.5849 24.3331 43.5091 24.4052 43.4314 24.4756C43.3539 24.546 43.2745 24.6144 43.1937 24.6808C43.1126 24.7473 43.0301 24.8117 42.946 24.8739C42.8618 24.9364 42.7762 24.9967 42.6891 25.055C42.602 25.1131 42.5135 25.1692 42.4237 25.2229C42.3339 25.2769 42.2428 25.3285 42.1503 25.3779C42.058 25.4273 41.9645 25.4744 41.8697 25.5192C41.7751 25.5637 41.6793 25.6062 41.5826 25.6464C41.486 25.6864 41.3883 25.7242 41.2895 25.7594C41.191 25.7948 41.0916 25.8275 40.9914 25.8579C40.891 25.8883 40.7901 25.9162 40.6885 25.9417C40.587 25.9671 40.4847 25.9902 40.382 26.0106C40.2793 26.031 40.1762 26.0489 40.0726 26.0642C39.9689 26.0796 39.8649 26.0925 39.7608 26.1027C39.6566 26.1129 39.5522 26.1206 39.4474 26.1258C39.3428 26.131 39.2383 26.1335 39.1335 26.1335H33.8001Z" fill="#CBB492"/>
<path d="M43.401 19.7335C43.401 19.6637 43.3994 19.5939 43.3958 19.5241C43.3925 19.4543 43.3873 19.3847 43.3804 19.3153C43.3738 19.2458 43.365 19.1764 43.3548 19.1074C43.3446 19.0383 43.3327 18.9695 43.319 18.9012C43.3054 18.8326 43.2902 18.7645 43.2731 18.6968C43.2563 18.6291 43.2375 18.5618 43.2173 18.4949C43.1971 18.428 43.1752 18.3618 43.1517 18.296C43.1281 18.2303 43.1029 18.1651 43.0763 18.1008C43.0496 18.0362 43.0213 17.9724 42.9915 17.9093C42.9615 17.8462 42.9302 17.7837 42.8973 17.7222C42.8644 17.6605 42.83 17.5999 42.794 17.5399C42.7581 17.4801 42.7208 17.4212 42.6819 17.363C42.6431 17.3049 42.6029 17.2478 42.5615 17.1918C42.5198 17.1358 42.4769 17.0808 42.4325 17.0268C42.3883 16.9728 42.3427 16.9199 42.2958 16.868C42.249 16.8164 42.2006 16.7658 42.1515 16.7164C42.1019 16.667 42.0515 16.6189 41.9996 16.572C41.9479 16.5251 41.895 16.4795 41.841 16.4353C41.7871 16.391 41.7321 16.348 41.676 16.3064C41.62 16.2649 41.5629 16.2247 41.5048 16.1858C41.4467 16.147 41.3877 16.1097 41.3279 16.0739C41.2679 16.0378 41.2073 16.0035 41.1456 15.9705C41.0842 15.9376 41.0217 15.9064 40.9585 15.8764C40.8954 15.8466 40.8317 15.8183 40.7671 15.7916C40.7027 15.7649 40.6375 15.7397 40.5717 15.7162C40.506 15.6926 40.4398 15.6708 40.3729 15.6505C40.306 15.6303 40.2387 15.6116 40.171 15.5947C40.1033 15.5776 40.0352 15.5624 39.9667 15.5487C39.8983 15.5351 39.8296 15.5233 39.7604 15.513C39.6913 15.5026 39.6221 15.4941 39.5525 15.4874C39.4831 15.4805 39.4135 15.4753 39.3438 15.472C39.274 15.4685 39.2042 15.4668 39.1344 15.4668H33.801C33.766 15.4668 33.7313 15.4685 33.6965 15.472C33.6617 15.4753 33.6273 15.4805 33.5929 15.4872C33.5588 15.4941 33.5248 15.5026 33.4915 15.5126C33.4579 15.5228 33.4252 15.5347 33.3929 15.548C33.3606 15.5614 33.329 15.5762 33.2981 15.5928C33.2675 15.6093 33.2375 15.6272 33.2083 15.6466C33.1794 15.666 33.1515 15.6868 33.1244 15.7089C33.0973 15.7312 33.0715 15.7545 33.0469 15.7793C33.0221 15.8039 32.9988 15.8297 32.9765 15.8568C32.9544 15.8839 32.9335 15.9118 32.9142 15.9408C32.8948 15.9699 32.8769 15.9999 32.8604 16.0305C32.844 16.0614 32.829 16.093 32.8156 16.1253C32.8023 16.1576 32.7904 16.1903 32.7802 16.2239C32.7702 16.2572 32.7617 16.2912 32.7548 16.3253C32.7481 16.3597 32.7429 16.3941 32.7396 16.4289C32.736 16.4637 32.7344 16.4985 32.7344 16.5335V22.9335C32.7344 22.9685 32.736 23.0033 32.7396 23.038C32.7429 23.0728 32.7481 23.1072 32.7548 23.1416C32.7617 23.1758 32.7702 23.2097 32.7802 23.243C32.7904 23.2766 32.8023 23.3093 32.8156 23.3416C32.829 23.3739 32.8438 23.4055 32.8604 23.4364C32.8769 23.467 32.8948 23.497 32.9142 23.526C32.9335 23.5551 32.9544 23.583 32.9765 23.6101C32.9988 23.6372 33.0221 23.663 33.0469 23.6876C33.0715 23.7124 33.0973 23.7358 33.1244 23.758C33.1515 23.7801 33.1794 23.801 33.2083 23.8203C33.2375 23.8397 33.2675 23.8576 33.2981 23.8741C33.329 23.8905 33.3606 23.9055 33.3929 23.9189C33.4252 23.9322 33.4579 23.9441 33.4915 23.9543C33.5248 23.9643 33.5588 23.9728 33.5929 23.9797C33.6273 23.9864 33.6617 23.9916 33.6965 23.9949C33.7313 23.9985 33.766 24.0001 33.801 24.0001H39.1344C39.2042 24.0001 39.274 23.9985 39.3438 23.9949C39.4135 23.9916 39.4831 23.9864 39.5525 23.9795C39.6221 23.9726 39.6913 23.9641 39.7604 23.9539C39.8296 23.9437 39.8983 23.9318 39.9667 23.918C40.0352 23.9045 40.1033 23.8893 40.171 23.8722C40.2387 23.8553 40.306 23.8366 40.3729 23.8164C40.4398 23.7962 40.506 23.7743 40.5717 23.7508C40.6375 23.7272 40.7027 23.702 40.7671 23.6753C40.8317 23.6487 40.8954 23.6203 40.9585 23.5905C41.0217 23.5605 41.0842 23.5293 41.1456 23.4964C41.2073 23.4635 41.2679 23.4291 41.3279 23.393C41.3877 23.3572 41.4467 23.3199 41.5048 23.281C41.5629 23.2422 41.62 23.202 41.676 23.1605C41.7321 23.1189 41.7871 23.076 41.841 23.0316C41.895 22.9874 41.9479 22.9418 41.9996 22.8949C42.0515 22.848 42.1019 22.7999 42.1515 22.7505C42.2006 22.7012 42.249 22.6505 42.2958 22.5987C42.3427 22.547 42.3883 22.4941 42.4325 22.4401C42.4769 22.3862 42.5198 22.3312 42.5615 22.2751C42.6029 22.2191 42.6431 22.162 42.6819 22.1039C42.7208 22.0458 42.7581 21.9868 42.794 21.927C42.83 21.867 42.8644 21.8064 42.8973 21.7447C42.9302 21.6833 42.9615 21.6208 42.9915 21.5576C43.0213 21.4945 43.0496 21.4308 43.0763 21.3662C43.1029 21.3018 43.1281 21.2366 43.1517 21.1708C43.1752 21.1051 43.1971 21.0389 43.2173 20.972C43.2375 20.9051 43.2563 20.8378 43.2731 20.7701C43.2902 20.7024 43.3054 20.6343 43.319 20.5658C43.3327 20.4974 43.3446 20.4287 43.3548 20.3595C43.365 20.2903 43.3738 20.2212 43.3804 20.1516C43.3873 20.0822 43.3925 20.0126 43.3958 19.9428C43.3994 19.873 43.401 19.8033 43.401 19.7335ZM34.8677 17.6001H39.1344C39.2042 17.6001 39.274 17.6035 39.3435 17.6103C39.4129 17.6172 39.4821 17.6274 39.5506 17.6412C39.6192 17.6547 39.6869 17.6718 39.7535 17.692C39.8204 17.7122 39.8863 17.7358 39.9508 17.7624C40.0152 17.7893 40.0783 17.8191 40.14 17.852C40.2017 17.8849 40.2615 17.9208 40.3196 17.9597C40.3777 17.9985 40.4338 18.0401 40.4877 18.0843C40.5417 18.1287 40.5935 18.1755 40.6429 18.2249C40.6923 18.2743 40.7392 18.3262 40.7835 18.3801C40.8277 18.4341 40.8694 18.4901 40.9081 18.5483C40.9471 18.6064 40.9829 18.6662 41.0158 18.7278C41.0487 18.7895 41.0785 18.8524 41.1052 18.917C41.1321 18.9816 41.1556 19.0474 41.1758 19.1141C41.196 19.181 41.2131 19.2487 41.2267 19.3172C41.2404 19.3858 41.2506 19.4549 41.2575 19.5243C41.2644 19.5939 41.2677 19.6637 41.2677 19.7335C41.2677 19.8033 41.2644 19.873 41.2575 19.9426C41.2506 20.012 41.2404 20.0812 41.2267 20.1497C41.2131 20.2183 41.196 20.286 41.1758 20.3526C41.1556 20.4195 41.1321 20.4853 41.1052 20.5499C41.0785 20.6143 41.0487 20.6774 41.0158 20.7391C40.9829 20.8008 40.9471 20.8605 40.9081 20.9187C40.8694 20.9768 40.8277 21.0328 40.7835 21.0868C40.7392 21.1408 40.6923 21.1926 40.6429 21.242C40.5935 21.2914 40.5417 21.3383 40.4877 21.3826C40.4338 21.4268 40.3777 21.4685 40.3196 21.5072C40.2615 21.5462 40.2017 21.582 40.14 21.6149C40.0783 21.6478 40.0152 21.6776 39.9508 21.7043C39.8863 21.7312 39.8204 21.7547 39.7535 21.7749C39.6869 21.7951 39.6192 21.8122 39.5506 21.8258C39.4821 21.8395 39.4129 21.8497 39.3435 21.8566C39.274 21.8635 39.2042 21.8668 39.1344 21.8668H34.8677V17.6001Z" fill="#CBB492"/>
</g>
</svg>
