<svg width="61" height="70" viewBox="0 0 61 70" fill="none" xmlns="http://www.w3.org/2000/svg">
<mask id="mask0_125_714" style="mask-type:luminance" maskUnits="userSpaceOnUse" x="0" y="0" width="61" height="70">
<path d="M0 0.102539H61V69.4207H0V0.102539Z" fill="white"/>
</mask>
<g mask="url(#mask0_125_714)">
<path d="M60.9953 12.4007V3.22231C60.9951 3.12009 60.9899 3.0181 60.9798 2.91633C60.9694 2.81479 60.9543 2.7137 60.9342 2.61352C60.9141 2.51311 60.8893 2.41427 60.8593 2.31634C60.8295 2.21864 60.795 2.12251 60.7557 2.02797C60.7164 1.93365 60.6727 1.84136 60.6244 1.75133C60.5761 1.66107 60.5235 1.57375 60.4666 1.48868C60.4098 1.40383 60.3489 1.3217 60.2839 1.24272C60.2189 1.16375 60.1503 1.08816 60.0779 1.01595C60.0054 0.943744 59.9298 0.875148 59.8506 0.810388C59.7717 0.745628 59.6895 0.684929 59.6045 0.628067C59.5194 0.57143 59.4318 0.518854 59.3416 0.470792C59.2515 0.42273 59.159 0.378954 59.0647 0.339918C58.9702 0.300881 58.874 0.266357 58.7761 0.236798C58.6782 0.207238 58.5791 0.182417 58.4789 0.162561C58.3785 0.142478 58.2777 0.127586 58.1759 0.117657C58.0741 0.107503 57.9721 0.102539 57.8699 0.102539H3.12932C3.0271 0.102539 2.92511 0.107503 2.82334 0.117657C2.72158 0.127586 2.62071 0.142478 2.5203 0.162561C2.42011 0.182417 2.32106 0.207238 2.22313 0.236798C2.1252 0.266357 2.02907 0.300881 1.93453 0.339918C1.84021 0.378954 1.74769 0.42273 1.65766 0.470792C1.5674 0.518854 1.47985 0.57143 1.39478 0.628067C1.30971 0.684929 1.22758 0.745628 1.1486 0.810388C1.0694 0.875148 0.993811 0.943744 0.921379 1.01595C0.848947 1.08816 0.780351 1.16375 0.715365 1.24272C0.65038 1.3217 0.589455 1.40383 0.532593 1.48868C0.47573 1.57375 0.423155 1.66107 0.374867 1.75133C0.326579 1.84136 0.282804 1.93365 0.243541 2.02797C0.204279 2.12251 0.169755 2.21864 0.13997 2.31634C0.109959 2.41427 0.0851385 2.51311 0.0650561 2.61352C0.0449737 2.7137 0.0298555 2.81479 0.0194758 2.91633C0.00932175 3.0181 0.00413188 3.12009 0.00390625 3.22231V12.4007C0.00413188 12.5031 0.00932175 12.6051 0.0194758 12.7066C0.0298555 12.8084 0.0449737 12.9095 0.0650561 13.0097C0.0851385 13.1099 0.109959 13.2089 0.13997 13.3068C0.169755 13.4045 0.204279 13.5007 0.243541 13.595C0.282804 13.6895 0.326579 13.7818 0.374867 13.8719C0.423155 13.9619 0.47573 14.0494 0.532593 14.1345C0.589455 14.2193 0.65038 14.3015 0.715365 14.3805C0.780351 14.4592 0.848947 14.535 0.921379 14.6072C0.993811 14.6794 1.0694 14.7478 1.1486 14.8128C1.22758 14.8776 1.30971 14.9383 1.39478 14.9951C1.47985 15.0518 1.5674 15.1043 1.65766 15.1524C1.74769 15.2005 1.84021 15.2442 1.93453 15.2833C2.02907 15.3223 2.1252 15.3566 2.22313 15.3864C2.32106 15.4159 2.42011 15.4408 2.5203 15.4606C2.62071 15.4807 2.72158 15.4956 2.82334 15.5055C2.92511 15.5157 3.0271 15.5206 3.12932 15.5206H4.01926V62.5602H2.33302C2.29691 62.5602 2.26103 62.562 2.22516 62.5656C2.1895 62.569 2.15385 62.5744 2.11865 62.5814C2.08323 62.5884 2.04848 62.5972 2.01395 62.6076C1.97966 62.618 1.94581 62.6302 1.91264 62.6439C1.87924 62.6577 1.84675 62.673 1.81516 62.69C1.78334 62.7069 1.75243 62.7254 1.72265 62.7455C1.69263 62.7653 1.66375 62.7868 1.636 62.8098C1.60824 62.8326 1.58162 62.8567 1.55612 62.882C1.53062 62.9075 1.50648 62.9341 1.48369 62.9619C1.4609 62.9898 1.43946 63.0187 1.4196 63.0485C1.39952 63.0785 1.38102 63.1092 1.3641 63.141C1.34717 63.1728 1.33183 63.2051 1.31806 63.2385C1.3043 63.2717 1.29211 63.3055 1.28173 63.34C1.27135 63.3743 1.26255 63.4093 1.25556 63.4445C1.24856 63.4799 1.24315 63.5154 1.23976 63.5512C1.23615 63.5869 1.23435 63.6228 1.23435 63.6589V68.3496C1.23435 68.3857 1.23615 68.4216 1.23976 68.4572C1.24315 68.4931 1.24856 68.5287 1.25556 68.5639C1.26255 68.5992 1.27135 68.6341 1.28173 68.6684C1.29211 68.7029 1.3043 68.7368 1.31806 68.77C1.33183 68.8034 1.34717 68.8358 1.3641 68.8674C1.38102 68.8993 1.39952 68.9299 1.4196 68.96C1.43946 68.9897 1.4609 69.0186 1.48369 69.0466C1.50648 69.0744 1.53062 69.101 1.55612 69.1265C1.58162 69.1518 1.60824 69.1759 1.636 69.1989C1.66375 69.2217 1.69263 69.2431 1.72265 69.263C1.75243 69.2831 1.78334 69.3016 1.81516 69.3185C1.84675 69.3354 1.87924 69.3508 1.91264 69.3645C1.94581 69.3783 1.97966 69.3905 2.01395 69.4009C2.04848 69.4112 2.08323 69.42 2.11865 69.427C2.15385 69.434 2.1895 69.4395 2.22516 69.4428C2.26103 69.4464 2.29691 69.4482 2.33302 69.4482H58.6662C58.7023 69.4482 58.7382 69.4464 58.7741 69.4428C58.8097 69.4395 58.8454 69.434 58.8806 69.427C58.916 69.42 58.9508 69.4112 58.9853 69.4009C59.0196 69.3905 59.0534 69.3783 59.0866 69.3645C59.12 69.3508 59.1525 69.3354 59.1841 69.3185C59.2159 69.3016 59.2468 69.2831 59.2766 69.263C59.3066 69.2431 59.3355 69.2217 59.3632 69.1989C59.391 69.1759 59.4176 69.1518 59.4431 69.1265C59.4686 69.101 59.4928 69.0744 59.5156 69.0466C59.5383 69.0186 59.5598 68.9897 59.5796 68.96C59.5997 68.9299 59.6182 68.8993 59.6351 68.8674C59.6521 68.8358 59.6674 68.8034 59.6812 68.77C59.6949 68.7368 59.7071 68.7029 59.7175 68.6684C59.7279 68.6341 59.7367 68.5992 59.7437 68.5639C59.7507 68.5287 59.7561 68.4931 59.7595 68.4572C59.7631 68.4216 59.7649 68.3857 59.7649 68.3496V63.6589C59.7649 63.6228 59.7631 63.5869 59.7595 63.5512C59.7561 63.5154 59.7507 63.4797 59.7437 63.4445C59.7367 63.4093 59.7279 63.3743 59.7175 63.34C59.7071 63.3055 59.6949 63.2717 59.6812 63.2385C59.6674 63.2051 59.6521 63.1726 59.6351 63.141C59.6182 63.1092 59.5997 63.0785 59.5796 63.0485C59.5598 63.0185 59.5383 62.9898 59.5156 62.9619C59.4928 62.9341 59.4686 62.9075 59.4431 62.882C59.4176 62.8567 59.391 62.8326 59.3632 62.8098C59.3355 62.7868 59.3066 62.7653 59.2766 62.7455C59.2468 62.7254 59.2159 62.7069 59.1841 62.69C59.1525 62.673 59.12 62.6577 59.0866 62.6439C59.0534 62.6302 59.0196 62.618 58.9853 62.6076C58.9508 62.5972 58.916 62.5884 58.8806 62.5814C58.8454 62.5744 58.8097 62.5692 58.7741 62.5656C58.7382 62.562 58.7023 62.5602 58.6662 62.5602H57.9633V15.5152C58.0633 15.5121 58.1633 15.5044 58.2625 15.4918C58.3621 15.4791 58.4607 15.4618 58.5584 15.4396C58.6561 15.4178 58.7526 15.3909 58.8476 15.3595C58.9429 15.3282 59.0363 15.2923 59.1281 15.2521C59.22 15.2117 59.3093 15.1671 59.3969 15.1181C59.4842 15.0691 59.5693 15.0161 59.6516 14.959C59.7337 14.9019 59.8132 14.841 59.8897 14.7762C59.9662 14.7115 60.0393 14.6431 60.1092 14.5714C60.1792 14.4996 60.2455 14.4245 60.3082 14.3464C60.3707 14.2681 60.4296 14.1871 60.4845 14.1034C60.5395 14.0194 60.5903 13.9332 60.6368 13.8446C60.6835 13.7559 60.7257 13.6649 60.7636 13.5722C60.8013 13.4795 60.8347 13.3851 60.8636 13.289C60.8922 13.1931 60.9164 13.0959 60.9358 12.9977C60.9552 12.8993 60.9701 12.8003 60.98 12.7005C60.9897 12.601 60.9949 12.5011 60.9953 12.4007ZM2.22313 12.4007V3.22231C2.22335 3.16251 2.22944 3.10339 2.24118 3.04473C2.25314 2.98606 2.27029 2.9292 2.29308 2.87391C2.31587 2.81863 2.34385 2.76605 2.37679 2.71596C2.40973 2.66609 2.44719 2.61984 2.48916 2.57719C2.53091 2.53454 2.57649 2.49618 2.6259 2.46234C2.67509 2.42849 2.72722 2.39983 2.78205 2.37591C2.83711 2.35222 2.89374 2.33394 2.95196 2.32108C3.0104 2.30822 3.06952 2.301 3.12932 2.29965H57.8699C57.9306 2.29965 57.9906 2.30551 58.0502 2.31725C58.1098 2.32921 58.1678 2.34658 58.2237 2.36982C58.2799 2.39284 58.3334 2.42127 58.3839 2.45489C58.4345 2.48851 58.4812 2.52687 58.5243 2.56952C58.5674 2.61239 58.6058 2.65887 58.6398 2.70942C58.6737 2.75974 58.7023 2.81276 58.7258 2.86895C58.7495 2.92491 58.7673 2.98267 58.7793 3.04202C58.7915 3.10159 58.7978 3.16161 58.7982 3.22231V12.4007C58.7978 12.4616 58.7915 12.5216 58.7793 12.5812C58.7673 12.6405 58.7495 12.6983 58.7258 12.7542C58.7023 12.8102 58.6737 12.8634 58.6398 12.9138C58.606 12.9641 58.5674 13.0108 58.5243 13.0537C58.4812 13.0963 58.4345 13.1347 58.3839 13.1683C58.3334 13.2019 58.2799 13.2303 58.2237 13.2534C58.1678 13.2766 58.1098 13.294 58.0502 13.3057C57.9906 13.3177 57.9306 13.3235 57.8699 13.3235H3.12932C3.06862 13.3235 3.0086 13.3177 2.94903 13.3057C2.88946 13.294 2.83147 13.2766 2.77551 13.2534C2.71932 13.2303 2.66584 13.2019 2.6153 13.1683C2.56475 13.1347 2.51804 13.0963 2.47495 13.0537C2.43185 13.0108 2.39326 12.9641 2.35942 12.9138C2.32557 12.8634 2.29691 12.8102 2.27344 12.7542C2.24975 12.6983 2.23193 12.6405 2.21997 12.5812C2.20778 12.5216 2.20146 12.4616 2.20101 12.4007H2.22313ZM11.9507 62.5602V57.2269H50.0811V62.5437L11.9507 62.5602ZM50.0592 42.3966H11.9288V38.3318H50.0592V42.3966ZM11.9288 44.5937H50.0592V48.8121H11.9288V44.5937ZM11.9288 51.0092H50.0592V55.0298H11.9288V51.0092ZM50.0592 36.1349H11.9288V29.8566H50.0592V36.1349ZM50.0592 27.687H11.9288V23.6224H50.0592V27.687ZM50.0592 21.4253H11.9288V15.5206H50.0592V21.4253ZM6.21637 15.5206H9.73169V62.5602H6.21637V15.5206ZM57.5678 67.2511H3.43146V64.7573H57.5678V67.2511ZM52.2563 62.5602V15.5206H55.7662V62.5602H52.2563Z" fill="#CBB492"/>
</g>
</svg>
