<svg width="74" height="65" viewBox="0 0 74 65" fill="none" xmlns="http://www.w3.org/2000/svg">
<mask id="mask0_125_682" style="mask-type:luminance" maskUnits="userSpaceOnUse" x="0" y="0" width="74" height="65">
<path d="M0 0H74V64.1025H0V0Z" fill="white"/>
</mask>
<g mask="url(#mask0_125_682)">
<path d="M71.5145 24.6549H65.3507V14.7928C65.3507 13.4332 64.2451 12.3273 62.8853 12.3273H51.7906V2.46546C51.7906 1.10566 50.6849 0 49.3251 0H24.6705C23.3107 0 22.205 1.10566 22.205 2.46546V12.3273H11.1103C9.75053 12.3273 8.64486 13.4332 8.64486 14.7928V24.6549H2.48109C1.12129 24.6549 0.015625 25.7605 0.015625 27.1203V36.9822C0.015625 38.342 1.12129 39.4476 2.48109 39.4476H8.64486V49.3097H2.48109C1.12129 49.3097 0.015625 50.4154 0.015625 51.7752V61.637C0.015625 62.9968 1.12129 64.1025 2.48109 64.1025H71.5145C72.8743 64.1025 73.98 62.9968 73.98 61.637V51.7752C73.98 50.4154 72.8743 49.3097 71.5145 49.3097H65.3507V39.4476H71.5145C72.8743 39.4476 73.98 38.342 73.98 36.9822V27.1203C73.98 25.7605 72.8743 24.6549 71.5145 24.6549ZM62.8853 14.7928V24.6549H38.2307V14.7928H62.8853ZM62.8853 49.3097H38.2307V39.4476H62.8853V49.3097ZM11.1103 39.4476H35.7649V49.3097H11.1103V39.4476ZM49.3251 51.7752V61.637H24.6705V51.7752H49.3251ZM24.6705 36.9822V27.1203H49.3251V36.9822H24.6705ZM24.6705 2.46546H49.3251V12.3273H24.6705V2.46546ZM11.1103 14.7928H35.7649V24.6549H11.1103V14.7928ZM2.48109 36.9822V27.1203H22.205V36.9822H2.48109ZM2.48109 51.7752H22.205V61.637H2.48109V51.7752ZM71.5145 51.7752V61.637H51.7906V51.7752H71.5145ZM71.5145 36.9822H51.7906V27.1203H71.5145V36.9822Z" fill="#CBB492"/>
</g>
</svg>
