<svg width="71" height="69" viewBox="0 0 71 69" fill="none" xmlns="http://www.w3.org/2000/svg">
<mask id="mask0_125_723" style="mask-type:luminance" maskUnits="userSpaceOnUse" x="0" y="0" width="71" height="69">
<path d="M0 0.102539H71V68.6241H0V0.102539Z" fill="white"/>
</mask>
<g mask="url(#mask0_125_723)">
<path d="M13.7065 14.2058C15.5918 14.2058 17.298 13.4095 18.5326 12.1218C19.7566 10.8464 20.5139 9.08838 20.5139 7.15324C20.5139 5.21809 19.7566 3.46197 18.5326 2.18494C17.298 0.898859 15.5918 0.102539 13.7065 0.102539C11.8193 0.102539 10.1128 0.898859 8.87847 2.18679C7.65454 3.46197 6.89718 5.21995 6.89718 7.15509C6.89718 9.09024 7.65454 10.8464 8.87847 12.1234C10.1128 13.4095 11.8193 14.2058 13.7065 14.2058ZM10.5173 3.76181C11.3333 2.9103 12.4612 2.38181 13.7046 2.38181C14.948 2.38181 16.076 2.90867 16.892 3.76181C17.7185 4.62375 18.2312 5.82287 18.2312 7.15324C18.2312 8.48361 17.7185 9.68272 16.892 10.5447C16.076 11.3962 14.948 11.9249 13.7046 11.9249C12.4612 11.9249 11.3333 11.398 10.5173 10.5447C9.69079 9.68272 9.1783 8.48361 9.1783 7.15324C9.1783 5.82287 9.69079 4.62561 10.5173 3.76181ZM25.2566 17.4998C23.9425 16.2015 22.1297 15.3942 20.1378 15.3942H7.27331C5.28135 15.3942 3.46864 16.2015 2.15451 17.4998C0.832949 18.8035 0.0136719 20.6021 0.0136719 22.5783V38.8544C0.0136719 40.0572 0.489052 41.155 1.25685 41.9534C2.03392 42.7639 3.10874 43.2659 4.29348 43.2659C5.01351 43.2659 5.69481 43.0778 6.29054 42.7497V64.2072C6.29054 65.4098 6.76592 66.5078 7.53395 67.306C8.31079 68.1167 9.38585 68.6187 10.5706 68.6187C11.7537 68.6187 12.8285 68.1148 13.6054 67.306C13.6408 67.2689 13.6745 67.2316 13.7081 67.1942C13.742 67.2316 13.7756 67.2705 13.8111 67.306C14.5879 68.1167 15.6627 68.6187 16.8477 68.6187C18.0306 68.6187 19.1054 68.1148 19.8825 67.306C20.6486 66.5062 21.1257 65.4082 21.1257 64.2072V42.7516C21.7235 43.0797 22.4027 43.2678 23.1246 43.2678C24.3077 43.2678 25.3825 42.7639 26.1593 41.955C26.9258 41.155 27.4028 40.0572 27.4028 38.8562V22.5799C27.4028 22.5783 27.4028 22.5783 27.4028 22.5764C27.3974 20.6005 26.5781 18.8017 25.2566 17.4998ZM24.5171 40.3781C24.157 40.7543 23.6621 40.9866 23.1195 40.9866C22.5785 40.9866 22.0836 40.7524 21.7235 40.3781C21.3527 39.9916 21.1222 39.454 21.1222 38.8562V37.4941C21.1222 37.4941 21.1222 37.4941 21.1222 37.4922V24.7741C21.1222 24.1445 20.6113 23.6336 19.9817 23.6336C19.3521 23.6336 18.8413 24.1445 18.8413 24.7741V37.4922V37.4941V64.2091C18.8413 64.8069 18.6105 65.346 18.24 65.7328C17.8798 66.1087 17.385 66.3411 16.8424 66.3411C16.3014 66.3411 15.8065 66.1071 15.4464 65.7328C15.0758 65.346 14.8451 64.8069 14.8451 64.2091V42.317C14.8451 41.6872 14.3342 41.1763 13.7046 41.1763C13.075 41.1763 12.5642 41.6872 12.5642 42.317V64.2091C12.5642 64.8069 12.3337 65.346 11.9629 65.7328C11.6027 66.1087 11.1079 66.3411 10.5653 66.3411C10.0242 66.3411 9.52939 66.1071 9.16926 65.7328C8.7987 65.346 8.56796 64.8069 8.56796 64.2091V37.4941V37.4922V24.7741C8.56796 24.1445 8.05733 23.6336 7.42751 23.6336C6.79793 23.6336 6.28707 24.1445 6.28707 24.7741V37.4922V37.4941V38.8562C6.28707 39.4522 6.05656 39.9916 5.68577 40.3781C5.32587 40.7543 4.83101 40.9866 4.28815 40.9866C3.74714 40.9866 3.25229 40.7524 2.89239 40.3781C2.52159 39.9916 2.29109 39.4522 2.29109 38.8544V22.5783C2.29109 21.2301 2.84786 20.0061 3.74552 19.1194C4.64828 18.227 5.89679 17.6737 7.26983 17.6737H20.1325C21.5071 17.6737 22.754 18.227 23.6568 19.1194C24.5542 20.0061 25.1112 21.2301 25.1112 22.5783V29.92V29.9216V38.8544C25.1165 39.4522 24.886 39.9916 24.5171 40.3781ZM54.1924 14.2058C56.0779 14.2058 57.786 13.4095 59.0188 12.1218C60.2425 10.8464 60.9998 9.08838 60.9998 7.15324C60.9998 5.21809 60.2425 3.46197 59.0188 2.18494C57.7842 0.898859 56.0779 0.102539 54.1924 0.102539C52.3071 0.102539 50.6008 0.898859 49.3662 2.18679C48.1425 3.46197 47.3852 5.21995 47.3852 7.15509C47.3852 9.09024 48.1425 10.8464 49.3662 12.1234C50.599 13.4095 52.3053 14.2058 54.1924 14.2058ZM51.0034 3.76181C51.8211 2.9103 52.9474 2.38181 54.1908 2.38181C55.4342 2.38181 56.5621 2.90867 57.3781 3.76181C58.2046 4.62375 58.7171 5.82287 58.7171 7.15324C58.7171 8.48361 58.2046 9.68272 57.3781 10.5447C56.5602 11.3962 55.4342 11.9249 54.1908 11.9249C52.9474 11.9249 51.8192 11.398 51.0034 10.5447C50.1769 9.68272 49.6642 8.48361 49.6642 7.15324C49.6642 5.82287 50.1769 4.62561 51.0034 3.76181ZM70.7783 35.7238C69.3468 30.695 68.0167 25.003 66.3315 20.1286C65.89 18.8318 65.106 17.7055 64.1021 16.8791C62.9686 15.9478 61.5603 15.3926 60.0368 15.3926H48.3464C46.8228 15.3926 45.4146 15.9478 44.2811 16.8791C43.2772 17.7055 42.495 18.8302 42.0535 20.1267C42.0375 20.1675 42.0215 20.2083 42.009 20.251L41.986 20.3326C41.954 20.4372 41.9239 20.5418 41.8956 20.6482C41.8937 20.6519 41.8937 20.6554 41.8937 20.6589L37.6067 35.7238C37.2893 36.8429 37.3992 38.0119 37.8303 38.9893C38.2755 39.9985 39.0718 40.8199 40.1077 41.2171C40.2069 41.2561 40.3134 41.2916 40.4163 41.3236C40.943 41.4743 41.4752 41.4975 41.9879 41.414L40.5724 46.3895C40.4003 46.9945 40.7514 47.6259 41.3564 47.7962C41.461 47.8263 41.5656 47.8405 41.6686 47.8405H46.7785V64.2072C46.7785 65.4098 47.2539 66.5078 48.022 67.306C48.7988 68.1167 49.8736 68.6187 51.0584 68.6187C52.2415 68.6187 53.3163 68.1148 54.0931 67.3044C54.1286 67.267 54.1622 67.2297 54.1961 67.1926C54.2297 67.2297 54.2634 67.2689 54.2988 67.3044C55.0757 68.1132 56.1507 68.6169 57.3355 68.6169C58.5186 68.6169 59.5934 68.1132 60.3702 67.3044C61.1364 66.5043 61.6137 65.4063 61.6137 64.2056V47.8388H66.7236C67.3532 47.8388 67.8641 47.328 67.8641 46.6981C67.8641 46.5687 67.8428 46.4445 67.8019 46.3273L66.4025 41.407C66.9152 41.4903 67.4472 41.469 67.974 41.3182C68.0751 41.2862 68.1797 41.2508 68.2773 41.2136C69.3148 40.818 70.1114 39.9951 70.5582 38.984C70.9856 38.0119 71.0957 36.8429 70.7783 35.7238ZM52.4506 65.7328C52.0907 66.1087 51.5959 66.3429 51.0549 66.3429C50.5139 66.3429 50.019 66.1087 49.6589 65.7345C49.2883 65.3479 49.0576 64.8085 49.0576 64.2109V47.8442H53.0519V64.2109C53.0519 64.8069 52.8214 65.346 52.4506 65.7328ZM59.3272 64.2091C59.3272 64.8069 59.0967 65.346 58.7261 65.7328C58.366 66.1087 57.8711 66.3411 57.3283 66.3411C56.7873 66.3411 56.2924 66.1071 55.9325 65.7328C55.5617 65.346 55.3312 64.8069 55.3312 64.2091V47.8423H59.3272V64.2091ZM68.4689 38.0722C68.2579 38.5511 67.9031 38.9307 67.4597 39.0974L67.3444 39.1329C66.9755 39.2377 66.594 39.1774 66.2643 38.991C65.8988 38.7834 65.592 38.4217 65.4146 37.9498C65.4005 37.9055 65.3861 37.8593 65.3719 37.815L61.5462 24.3715C61.4168 23.9175 61.03 23.607 60.5901 23.552C60.4431 23.5341 60.2905 23.5448 60.1397 23.5875C59.5347 23.7595 59.1837 24.3891 59.3557 24.9941C60.5831 29.3043 61.7396 34.1363 63.1585 38.3595L65.2071 45.5612H43.1761L45.2249 38.3614C46.6454 34.1379 47.8019 29.3062 49.0274 24.9941C49.1995 24.3891 48.8484 23.7577 48.2436 23.5875C47.6386 23.4173 47.0072 23.7665 46.837 24.3715L43.0112 37.815C42.9971 37.8593 42.9829 37.9036 42.9686 37.9481C42.793 38.4198 42.4844 38.7818 42.1191 38.9893C41.791 39.1774 41.4077 39.2377 41.039 39.1313L40.9235 39.0958C40.4801 38.929 40.1272 38.5494 39.9161 38.0706C39.6873 37.5544 39.6305 36.9371 39.799 36.3446L44.2032 20.8718C44.2032 20.8699 44.2048 20.8664 44.2048 20.8646C44.5081 19.969 45.0421 19.1938 45.7267 18.6296C46.4574 18.0283 47.3673 17.67 48.3501 17.67H60.0403C61.023 17.67 61.9311 18.0283 62.6637 18.6296C63.3429 19.1885 63.8751 19.9546 64.18 20.8416L68.5913 36.3427C68.7543 36.9387 68.6959 37.556 68.4689 38.0722ZM34.9641 1.24299V67.4818C34.9641 68.1114 34.4532 68.6222 33.8236 68.6222C33.1938 68.6222 32.683 68.1114 32.683 67.4818V1.24299C32.683 0.613399 33.1938 0.102539 33.8236 0.102539C34.4532 0.102539 34.9641 0.613399 34.9641 1.24299Z" fill="#CBB492"/>
</g>
</svg>
