<svg width="69" height="66" viewBox="0 0 69 66" fill="none" xmlns="http://www.w3.org/2000/svg">
<path d="M44.7422 20.7146H41.8312V18.774C41.8312 16.2943 39.7828 14.2459 37.3031 14.2459H32.5594V8.85527H35.0391C37.4109 8.85527 39.4594 6.91465 39.4594 4.43496C39.4594 1.95527 37.5187 0.0146484 35.0391 0.0146484H22.425C20.0531 0.0146484 18.0047 1.95527 18.0047 4.43496C18.0047 6.91465 19.9453 8.85527 22.425 8.85527H24.9047V14.2459H20.1609C17.6812 14.2459 15.6328 16.2943 15.6328 18.774V20.7146H9.4875V12.1975C9.4875 7.56152 5.71406 3.78809 1.07812 3.78809C0.43125 3.78809 0 4.21934 0 4.86621V49.9318C0 50.5787 0.43125 51.01 1.07812 51.01C5.71406 51.01 9.4875 47.2365 9.4875 42.6006V34.0834H15.6328V36.024C15.6328 38.5037 17.6812 40.5522 20.1609 40.5522H37.4109C39.8906 40.5522 41.9391 38.5037 41.9391 36.024V34.0834H44.85C50.6719 34.0834 55.5234 38.7193 55.7391 44.5412C55.7391 45.0803 56.2781 45.6193 56.8172 45.6193H67.9219C68.5687 45.6193 69 45.0803 69 44.5412C68.7844 31.4959 57.8953 20.7146 44.7422 20.7146ZM7.33125 42.6006C7.33125 45.7272 5.06719 48.2068 2.15625 48.7459V6.15996C5.06719 6.69902 7.33125 9.28652 7.33125 12.3053V42.6006ZM20.1609 4.54277C20.1609 3.35684 21.1313 2.27871 22.425 2.27871H35.1469C36.3328 2.27871 37.4109 3.24902 37.4109 4.54277C37.4109 5.83652 36.3328 6.80684 35.0391 6.80684C34.9313 6.80684 21.6703 6.80684 22.3172 6.80684C21.1313 6.80684 20.1609 5.72871 20.1609 4.54277ZM27.0609 8.96309H30.4031V14.3537H27.0609V8.96309ZM9.4875 32.035V22.9787H15.6328V32.035H9.4875ZM37.3031 38.3959H20.0531C18.7594 38.3959 17.6812 37.3178 17.6812 36.024C17.6812 30.9568 17.6812 23.949 17.6812 18.774C17.6812 17.4803 18.7594 16.4021 20.0531 16.4021C40.8609 16.4021 16.4953 16.4021 37.3031 16.4021C38.5969 16.4021 39.675 17.4803 39.675 18.774C39.675 26.9678 39.675 27.9381 39.675 36.024C39.675 37.3178 38.5969 38.3959 37.3031 38.3959ZM57.6797 43.5709C56.925 36.9943 51.4266 32.035 44.7422 32.035H41.8312V22.9787H44.7422C56.3859 22.9787 65.9813 32.1428 66.8438 43.5709H57.6797Z" fill="#CBB492"/>
<path d="M68.3539 59.2043C68.3539 56.1855 64.0414 51.1184 63.1789 50.0402C62.7477 49.609 61.993 49.609 61.5617 50.0402C60.6992 51.0105 56.3867 56.1855 56.3867 59.2043C56.3867 62.5465 59.082 65.2418 62.4242 65.2418C65.7664 65.2418 68.3539 62.5465 68.3539 59.2043ZM58.4352 59.2043C58.4352 57.8027 60.5914 54.6762 62.3164 52.4121C64.0414 54.5684 66.1977 57.6949 66.1977 59.2043C66.1977 61.3605 64.4727 63.0855 62.3164 63.0855C60.1602 63.0855 58.4352 61.3605 58.4352 59.2043Z" fill="#CBB492"/>
</svg>
